<svg xmlns="http://www.w3.org/2000/svg" version="1.1" xmlns:xlink="http://www.w3.org/1999/xlink" xmlns:svgjs="http://svgjs.dev/svgjs" width="1500" height="1500" viewBox="0 0 1500 1500"><rect width="1500" height="1500" fill="#000000"></rect><g transform="matrix(0.6666666666666666,0,0,0.6666666666666666,249.3940271058171,399.2006267467237)"><svg viewBox="0 0 396 277" data-background-color="#ffffff" preserveAspectRatio="xMidYMid meet" height="1049" width="1500" xmlns="http://www.w3.org/2000/svg" xmlns:xlink="http://www.w3.org/1999/xlink"><g id="tight-bounds" transform="matrix(1,0,0,1,0.24003473390354202,0.4486554687667592)"><svg viewBox="0 0 395.52 276.1018624920707" height="276.1018624920707" width="395.52"><g><svg viewBox="0 0 395.52 276.1018624920707" height="276.1018624920707" width="395.52"><g transform="matrix(1,0,0,1,0,181.56973967705298)"><svg viewBox="0 0 395.52 94.53212281501774" height="94.53212281501774" width="395.52"><g id="textblocktransform"><svg viewBox="0 0 395.52 94.53212281501774" height="94.53212281501774" width="395.52" id="textblock"><g><svg viewBox="0 0 395.52 94.53212281501774" height="94.53212281501774" width="395.52"><g transform="matrix(1,0,0,1,0,0)"><svg width="395.52" viewBox="0.8239563675018744 -31.94981 216.52315363249812 51.75013973346062" height="94.53212281501774" data-palette-color="#50a060"><path d="M16.986-12.956l-0.56 2.825 0.881 4.035c0.517 2.364 0.227 4.413-0.867 6.147-1.102 1.735-2.9 2.875-5.394 3.42v0c-0.228 0.05-0.455 0.089-0.681 0.118-0.231 0.037-0.431 0.057-0.601 0.06v0l0.658 3.009 2.579-0.564c1.329-0.29 2.654-0.392 3.976-0.306 1.329 0.085 2.489 0.493 3.482 1.225 0.994 0.738 1.671 1.931 2.031 3.579v0l0.256 1.172 2.087 1.632c-1.092 1.528-2.452 2.801-4.079 3.819-1.633 1.019-3.421 1.74-5.361 2.165v0c-3.725 0.814-7.166 0.447-10.324-1.101v0l1.109-2.843c1.765 0.768 3.261 1.212 4.488 1.333 1.234 0.119 2.597 0.016 4.088-0.31v0c1.264-0.276 2.317-0.656 3.16-1.141 0.848-0.492 1.519-0.997 2.013-1.515v0l-0.222-1.016c-0.354-1.622-0.953-2.767-1.795-3.436-0.841-0.662-2.264-0.774-4.271-0.336v0l-5.744 1.256-1.456-6.663c-1.285-0.292-2.359-0.941-3.22-1.947-0.866-0.998-1.466-2.259-1.799-3.784v0l-0.372-1.699c-0.369-1.687-0.282-3.166 0.259-4.438 0.534-1.27 1.399-2.326 2.593-3.167 1.19-0.833 2.579-1.423 4.168-1.77v0c2.104-0.46 3.907-0.591 5.411-0.395 1.503 0.197 2.672 0.409 3.507 0.636zM14.19-5.466l-1.052-4.817c-0.611-0.14-1.306-0.216-2.088-0.229-0.789-0.019-1.668 0.078-2.639 0.29v0c-1.524 0.333-2.694 1.005-3.51 2.016-0.81 1.01-1.055 2.244-0.737 3.702v0l0.372 1.7c0.305 1.394 0.985 2.385 2.042 2.973 1.062 0.58 2.306 0.714 3.732 0.402v0c1.491-0.326 2.585-1.005 3.28-2.037 0.688-1.037 0.888-2.371 0.6-4zM25.755 6.489l-2.968-16.302-1.828-1.944c1.217-1.468 2.642-2.663 4.277-3.584 1.641-0.922 3.333-1.678 5.076-2.266v0l1.075 2.833c-1.526 0.515-2.732 1.016-3.619 1.503-0.888 0.48-1.598 0.938-2.129 1.373v0l3.245 17.817zM51.425-7.989l-12.011 1.761 0.945 6.451c0.835 0.41 1.706 0.633 2.614 0.668 0.908 0.035 1.741-0.003 2.5-0.114v0c1.412-0.207 2.659-0.548 3.742-1.023 1.089-0.476 2.105-1.154 3.047-2.034v0l0.484 3.305c-0.897 0.731-1.91 1.314-3.038 1.749-1.122 0.434-2.356 0.75-3.702 0.947v0c-2.104 0.308-3.995 0.282-5.671-0.078-1.676-0.354-3.254-1.012-4.737-1.975v0l1.426-2.27-1.176-8.025c-0.091-0.62-0.193-1.36-0.305-2.219-0.105-0.854-0.096-1.758 0.027-2.712 0.129-0.962 0.482-1.886 1.059-2.773v0c0.74-1.112 1.611-1.86 2.613-2.243 1.002-0.383 1.912-0.634 2.729-0.754v0c0.851-0.125 1.811-0.148 2.881-0.068 1.069 0.079 2.102 0.548 3.096 1.406v0c0.808 0.683 1.418 1.467 1.83 2.349 0.411 0.876 0.696 1.737 0.854 2.584 0.159 0.853 0.283 1.589 0.374 2.209v0zM38.98-9.187l8.568-1.255c-0.105-0.719-0.259-1.535-0.46-2.45-0.2-0.907-0.582-1.67-1.143-2.288v0c-0.24-0.302-0.652-0.612-1.238-0.93-0.586-0.318-1.386-0.403-2.403-0.255v0c-0.983 0.144-1.716 0.454-2.198 0.929-0.483 0.475-0.816 0.894-0.998 1.258v0c-0.328 0.749-0.458 1.587-0.39 2.513 0.069 0.933 0.157 1.759 0.262 2.478zM71.856-10.093l-12.078 1.226 0.658 6.487c0.816 0.447 1.677 0.708 2.583 0.783 0.906 0.076 1.74 0.075 2.502-0.003v0c1.419-0.144 2.68-0.43 3.783-0.856 1.109-0.428 2.154-1.06 3.134-1.897v0l0.338 3.323c-0.928 0.691-1.966 1.228-3.113 1.613-1.14 0.384-2.387 0.644-3.74 0.782v0c-2.116 0.215-4.003 0.105-5.663-0.33-1.658-0.428-3.206-1.155-4.644-2.182v0l1.525-2.206-0.819-8.068c-0.063-0.623-0.132-1.367-0.206-2.231-0.067-0.858-0.018-1.761 0.147-2.709 0.171-0.955 0.565-1.863 1.181-2.723v0c0.788-1.078 1.692-1.787 2.71-2.124 1.018-0.338 1.938-0.548 2.76-0.632v0c0.856-0.087 1.816-0.067 2.881 0.059 1.065 0.126 2.075 0.64 3.031 1.542v0c0.777 0.719 1.351 1.528 1.724 2.428 0.372 0.894 0.618 1.767 0.738 2.619 0.121 0.859 0.213 1.6 0.276 2.224v0zM59.476-11.842l8.616-0.874c-0.073-0.723-0.19-1.545-0.351-2.468-0.16-0.915-0.507-1.694-1.042-2.336v0c-0.226-0.312-0.625-0.64-1.195-0.985-0.571-0.344-1.367-0.464-2.389-0.36v0c-0.988 0.1-1.734 0.377-2.237 0.83-0.503 0.453-0.854 0.857-1.053 1.212v0c-0.361 0.734-0.528 1.565-0.501 2.494 0.028 0.935 0.079 1.764 0.152 2.487zM76.969-18.287l-1.287-2.371c0.828-0.581 1.941-1.162 3.337-1.741 1.396-0.573 3.09-0.916 5.08-1.029v0c0.859-0.049 1.782-0.011 2.771 0.113 0.989 0.131 1.945 0.444 2.868 0.939 0.929 0.495 1.707 1.306 2.331 2.432v0c0.261 0.486 0.471 1.072 0.631 1.757 0.153 0.692 0.294 1.589 0.423 2.691 0.13 1.108 0.245 2.557 0.346 4.347v0l0.572 10.084-3.185 0.18-0.577-10.183c-0.124-2.19-0.275-3.851-0.453-4.983-0.178-1.138-0.485-2.012-0.92-2.622v0c-0.326-0.442-0.857-0.866-1.595-1.272-0.738-0.412-1.819-0.578-3.243-0.497v0c-0.792 0.045-1.517 0.153-2.175 0.324-0.651 0.17-1.253 0.388-1.806 0.653v0l1.084 19.129-3.175 0.18zM112.891-31.95l0.041 3.18-10.349 0.132 0.105 8.21 6.469-0.083 0.041 3.19-6.469 0.083 0.206 16.068-3.49 0.045-0.352-27.468-1.03-3.167zM117.154-31.848l3.529 0.053-0.056 3.73-3.53-0.054zM116.178-23.602l4.18 0.063-0.339 22.388-3.13-0.048 0.292-19.258zM125.51-29.345l4.176 0.174-0.248 5.975 4.726 0.196-0.128 3.077-4.726-0.196-0.266 6.414c-0.038 0.926-0.055 1.973-0.05 3.141-0.001 1.161 0.292 2.284 0.881 3.369v0c0.428 0.778 1.114 1.604 2.059 2.478 0.945 0.867 1.836 1.584 2.673 2.153v0l-1.991 2.409c-0.937-0.573-1.879-1.276-2.825-2.109-0.946-0.84-1.714-1.703-2.305-2.588v0c-0.847-1.296-1.351-2.588-1.511-3.875-0.16-1.281-0.214-2.554-0.161-3.82v0l0.565-13.619zM155.538-28.747l-1.461 2.837c-0.798-0.496-1.585-0.863-2.363-1.104-0.783-0.247-1.504-0.396-2.162-0.446v0c-1.755-0.134-3.102 0.164-4.04 0.895-0.938 0.724-1.597 1.73-1.976 3.018-0.379 1.282-0.629 2.717-0.75 4.306v0l-1.146 14.986c0.881 0.636 1.775 1.102 2.682 1.398 0.913 0.304 1.948 0.5 3.104 0.589v0c1.123 0.086 2.092 0.053 2.906-0.099 0.807-0.152 1.711-0.474 2.711-0.966v0l1.207 3.231c-0.864 0.369-1.919 0.656-3.164 0.861-1.246 0.206-2.613 0.252-4.103 0.138v0c-0.791-0.06-1.794-0.231-3.01-0.511-1.209-0.273-2.477-0.751-3.801-1.434-1.332-0.683-2.615-1.654-3.85-2.912v0l1.96-2.147 1.016-13.301c0.167-2.18 0.586-4.161 1.257-5.941 0.671-1.781 1.732-3.157 3.184-4.13 1.458-0.965 3.443-1.351 5.956-1.159v0c1.19 0.091 2.238 0.288 3.144 0.591 0.913 0.297 1.813 0.73 2.699 1.3zM157.132-0.42l1.365-11.368c0.075-0.622 0.18-1.362 0.316-2.218 0.136-0.85 0.398-1.718 0.787-2.605 0.389-0.893 0.995-1.69 1.818-2.39v0c1.038-0.876 2.124-1.363 3.257-1.462 1.133-0.099 2.11-0.099 2.931-0.001v0c0.854 0.103 1.813 0.335 2.877 0.698 1.058 0.362 1.987 1.091 2.789 2.188v0c0.634 0.875 1.034 1.793 1.201 2.753 0.168 0.953 0.217 1.859 0.147 2.717-0.07 0.864-0.143 1.608-0.218 2.23v0l-0.967 8.052 1.435 2.227c-1.456 1-3.011 1.7-4.663 2.099-1.647 0.407-3.443 0.493-5.39 0.259v0c-1.913-0.23-3.489-0.661-4.729-1.293-1.246-0.64-2.231-1.268-2.956-1.886zM161.666-11.508l-1.134 9.442c0.698 0.614 1.465 1.055 2.299 1.323 0.834 0.268 1.615 0.446 2.343 0.534v0c0.721 0.087 1.529 0.1 2.422 0.039 0.894-0.061 1.736-0.309 2.527-0.744v0l1.134-9.442c0.087-0.721 0.143-1.551 0.168-2.488 0.031-0.93-0.16-1.768-0.574-2.517v0c-0.192-0.359-0.559-0.772-1.1-1.24-0.548-0.469-1.381-0.77-2.5-0.904v0c-1.119-0.134-1.99-0.038-2.613 0.29-0.624 0.328-1.088 0.642-1.393 0.941v0c-0.579 0.629-0.964 1.398-1.153 2.309-0.197 0.916-0.339 1.735-0.426 2.457zM177.941 2.281l1.888-11.294c0.103-0.618 0.243-1.352 0.419-2.201 0.175-0.843 0.477-1.698 0.906-2.565 0.43-0.874 1.072-1.642 1.926-2.304v0c1.078-0.827 2.185-1.264 3.322-1.31 1.137-0.046 2.113-0.002 2.928 0.134v0c0.848 0.142 1.796 0.419 2.842 0.831 1.04 0.41 1.935 1.182 2.685 2.314v0c0.592 0.903 0.95 1.839 1.072 2.805 0.123 0.96 0.13 1.867 0.021 2.721-0.11 0.86-0.217 1.599-0.32 2.218v0l-1.338 7.999 1.331 2.291c-1.501 0.932-3.086 1.559-4.756 1.881-1.664 0.33-3.462 0.333-5.395 0.01v0c-1.9-0.318-3.455-0.821-4.665-1.51-1.215-0.697-2.17-1.37-2.866-2.02zM182.982-8.587l-1.568 9.38c0.669 0.646 1.414 1.122 2.235 1.428 0.821 0.306 1.593 0.52 2.316 0.641v0c0.717 0.12 1.523 0.17 2.418 0.151 0.895-0.019 1.748-0.228 2.558-0.627v0l1.569-9.379c0.12-0.717 0.214-1.542 0.282-2.478 0.074-0.927-0.078-1.774-0.457-2.54v0c-0.175-0.367-0.522-0.797-1.041-1.289-0.526-0.493-1.344-0.833-2.456-1.019v0c-1.111-0.186-1.986-0.129-2.624 0.169-0.638 0.299-1.116 0.591-1.434 0.876v0c-0.608 0.601-1.027 1.352-1.259 2.253-0.239 0.906-0.419 1.718-0.539 2.434zM204.431-24.376l4.088 0.873-6.814 31.88-3.11-0.664 6.158-28.81zM205.957-1.758l-1.31-0.28c0.61-1.738 1.497-3.32 2.661-4.749 1.171-1.427 2.58-2.584 4.229-3.472 1.649-0.888 3.438-1.396 5.367-1.522v0l0.443 3.142c-1.787 0.129-3.432 0.62-4.936 1.47-1.503 0.845-2.739 2.097-3.708 3.759v0l5.29 13.094-2.994 1.191z" opacity="1" transform="matrix(1,0,0,1,0,0)" fill="#ffffff" class="wordmark-text-0" data-fill-palette-color="primary" id="text-0"></path></svg></g></svg></g></svg></g></svg></g><g transform="matrix(1,0,0,1,117.90391502433255,0)"><svg viewBox="0 0 159.7121699513349 152.95297471469868" height="152.95297471469868" width="159.7121699513349"><g><svg xmlns="http://www.w3.org/2000/svg" xmlns:xlink="http://www.w3.org/1999/xlink" version="1.1" x="0" y="0" viewBox="5.249222159405333 6.993700248545403 92.9730205548963 89.03829975145459" enable-background="new 0 0 100 100" xml:space="preserve" height="152.95297471469868" width="159.7121699513349" class="icon-icon-0" data-fill-palette-color="accent" id="icon-0"><g fill="#50a060" data-fill-palette-color="accent"><path d="M8.144 61.626C7.062 60.738 6.28 59.502 5.763 58.124A8.6 8.6 0 0 1 5.399 53.598C5.695 52.047 6.407 50.58 7.349 49.364 8.285 48.138 9.423 47.131 10.624 46.302L9.757 48.072C9.705 47.074 9.791 46.322 9.932 45.456 10.071 44.616 10.327 43.785 10.673 42.969 11.363 41.354 12.637 39.793 14.315 38.975 15.977 38.132 17.781 38.04 19.343 38.319 20.92 38.62 22.349 39.189 23.622 40.03 22.102 40.085 20.655 40.08 19.322 40.353 17.993 40.589 16.821 41.042 15.992 41.728 15.162 42.411 14.609 43.306 14.249 44.389 14.059 44.924 13.946 45.507 13.849 46.1A12 12 0 0 0 13.731 47.825L13.738 49.013 12.863 49.596C11.874 50.255 10.971 50.975 10.188 51.768 9.42 52.572 8.77 53.445 8.333 54.447 7.42 56.426 7.385 58.986 8.144 61.626" fill="#ffffff" data-fill-palette-color="accent"></path></g><g fill="#50a060" data-fill-palette-color="accent"><path d="M8.863 49.028C7.726 47.588 6.963 45.906 6.352 44.165A19.6 19.6 0 0 1 5.348 38.66C5.291 36.764 5.499 34.817 6.071 32.947 6.621 31.071 7.537 29.292 8.698 27.717L8.804 27.573 8.872 27.507C10.024 26.395 11.143 25.544 12.403 24.729 13.655 23.943 14.982 23.254 16.402 22.764 17.813 22.269 19.319 21.954 20.832 21.98 22.335 21.991 23.847 22.343 25.061 23.113A11.4 11.4 0 0 0 21.086 23.727C19.863 24.154 18.723 24.733 17.634 25.404A28 28 0 0 0 14.519 27.666C14.019 28.072 13.532 28.496 13.063 28.936 12.597 29.355 12.1 29.837 11.733 30.239L11.907 30.029C10.131 32.59 9.092 35.57 8.681 38.799A32 32 0 0 0 8.444 43.787C8.474 45.498 8.641 47.227 8.863 49.028" fill="#ffffff" data-fill-palette-color="accent"></path></g><g fill="#50a060" data-fill-palette-color="accent"><path d="M20.741 38.59C19.964 38.441 19.223 37.986 18.658 37.311 18.093 36.635 17.738 35.712 17.671 34.778 17.595 33.84 17.777 32.923 18.066 32.097 18.365 31.271 18.778 30.53 19.24 29.853L18.845 30.813C18.97 29.421 19.23 28.251 19.686 27.026 20.129 25.823 20.75 24.655 21.602 23.618 22.443 22.584 23.534 21.677 24.803 21.162 26.064 20.642 27.46 20.543 28.659 20.954 26.457 22.231 25.378 23.781 24.527 25.551A25 25 0 0 0 23.436 28.341C23.138 29.29 22.827 30.362 22.636 31.251L22.488 31.942 22.241 32.211C21.41 33.116 20.699 34.015 20.32 34.989A3.54 3.54 0 0 0 20.089 36.626C20.146 37.236 20.35 37.916 20.741 38.59" fill="#ffffff" data-fill-palette-color="accent"></path></g><g fill="#50a060" data-fill-palette-color="accent"><path d="M75.812 36.07C75.902 34.413 75.94 32.796 75.749 31.265 75.547 29.74 75.141 28.314 74.378 27.215 73.639 26.106 72.612 25.322 71.401 24.795A10 10 0 0 0 69.476 24.201 13 13 0 0 0 68.464 24.044 8 8 0 0 0 67.532 23.986L66.602 24.014 65.96 23.19C64.706 21.585 63.282 20.16 61.647 19.027 60.025 17.876 58.201 17.012 56.244 16.411S52.197 15.468 50.045 15.344C47.89 15.225 45.684 15.304 43.418 15.553 45.374 14.341 47.602 13.605 49.899 13.171 52.201 12.747 54.619 12.68 57.016 13.094A18.2 18.2 0 0 1 63.849 15.755C65.93 17.109 67.712 18.887 69.107 20.877L67.534 20.081A11 11 0 0 1 69.023 20.24C69.488 20.315 69.943 20.428 70.395 20.557 71.295 20.819 72.185 21.169 73.018 21.656 74.695 22.595 76.152 24.13 76.886 25.922 77.614 27.718 77.723 29.597 77.442 31.302 77.183 33.017 76.59 34.608 75.812 36.07" fill="#ffffff" data-fill-palette-color="accent"></path></g><g fill="#50a060" data-fill-palette-color="accent"><path d="M76.173 30.312C77.907 29.654 79.812 29.779 81.58 30.378A9.44 9.44 0 0 1 86.134 33.798C87.28 35.392 87.869 37.314 87.931 39.152 87.976 40.998 87.575 42.784 86.611 44.349 85.914 42.652 85.425 41.133 84.845 39.761 84.272 38.39 83.64 37.194 82.877 36.119S81.206 34.073 80.091 33.136C78.974 32.194 77.696 31.302 76.173 30.312" fill="#ffffff" data-fill-palette-color="accent"></path></g><g fill="#50a060" data-fill-palette-color="accent"><path d="M73.293 40.39C75.57 39.536 78.125 39.344 80.65 39.831 83.175 40.301 85.689 41.673 87.465 43.761 89.261 45.835 90.27 48.423 90.77 50.952 91.259 53.502 91.292 56.047 91.06 58.518L91.041 58.715 91.019 58.801C90.778 59.756 90.488 60.501 90.157 61.314A21 21 0 0 1 89.03 63.625 19.2 19.2 0 0 1 85.955 67.749C84.718 68.948 83.327 70.02 81.754 70.699A11 11 0 0 1 76.892 71.705 15.8 15.8 0 0 0 80.895 69.304C82.037 68.315 83.039 67.223 83.841 65.981 84.671 64.766 85.347 63.45 85.92 62.091 86.205 61.411 86.453 60.715 86.686 60.019 86.907 59.339 87.114 58.568 87.241 57.975L87.2 58.257C87.272 56.007 87.242 53.778 86.876 51.664 86.537 49.547 85.861 47.56 84.746 45.875 83.626 44.199 81.997 42.854 79.993 41.948 77.988 41.052 75.695 40.555 73.293 40.39" fill="#ffffff" data-fill-palette-color="accent"></path></g><g fill="#50a060" data-fill-palette-color="accent"><path d="M38.018 75.664C38.155 77.109 38.75 78.477 39.691 79.421 40.641 80.367 41.908 80.836 43.216 80.993L43.825 81.066 43.861 81.842A8.7 8.7 0 0 0 44.685 85.103C45.167 86.084 45.882 86.848 46.761 87.292 48.523 88.201 50.893 88.003 53.134 87.381L53.745 87.211 54.497 87.683C54.741 87.835 55.209 88.077 55.593 88.247 56 88.427 56.422 88.583 56.853 88.706A9.6 9.6 0 0 0 59.481 89.088C61.249 89.096 62.984 88.596 64.604 87.753 66.224 86.899 67.709 85.678 69.045 84.272A35 35 0 0 0 72.735 79.63L73.075 79.119 73.644 78.887A6.7 6.7 0 0 0 74.82 78.223C75.204 77.953 75.54 77.651 75.802 77.338 76.317 76.694 76.554 76.113 76.499 75.373 76.446 74.631 76.054 73.734 75.459 72.886 74.87 72.026 74.094 71.219 73.284 70.419L72.604 69.749 72.744 68.937C73.03 67.277 73.04 65.316 72.676 63.615 72.325 61.888 71.564 60.291 70.216 59.238 68.892 58.157 67.037 57.642 65.127 57.551 63.206 57.432 61.224 57.684 59.252 58.026 61.086 57.22 63.026 56.597 65.091 56.353 67.13 56.133 69.411 56.311 71.396 57.515 73.382 58.708 74.718 60.796 75.362 62.899 75.686 63.961 75.882 65.042 75.984 66.121 76.081 67.222 76.107 68.238 75.997 69.432L75.458 67.951A17.4 17.4 0 0 1 78.288 70.805C79.132 71.909 79.927 73.243 80.175 74.938A6.1 6.1 0 0 1 79.984 77.537C79.737 78.388 79.293 79.141 78.786 79.772A9 9 0 0 1 77.094 81.37C76.461 81.821 75.912 82.163 75.099 82.519L76.008 81.776C74.808 83.616 73.495 85.422 71.907 87.04 70.321 88.651 68.501 90.123 66.376 91.199 64.269 92.292 61.797 92.885 59.352 92.728A13 13 0 0 1 55.787 92.018 13 13 0 0 1 54.118 91.309 10 10 0 0 1 52.495 90.28L53.858 90.582C52.51 90.825 51.113 90.974 49.666 90.868 48.234 90.765 46.698 90.399 45.405 89.504 44.1 88.629 43.174 87.289 42.704 85.921 42.221 84.53 42.111 83.166 42.255 81.725L42.901 82.575C41.383 82.179 39.885 81.316 39 79.99 38.097 78.687 37.815 77.102 38.018 75.664" fill="#ffffff" data-fill-palette-color="accent"></path></g><g fill="#50a060" data-fill-palette-color="accent"><path d="M51.696 59.106C53.067 58.422 54.31 57.53 55.229 56.443 56.178 55.378 56.686 54.093 56.756 52.824L58.61 52.27C58.613 52.247 58.776 52.349 58.848 52.347 58.938 52.364 59.004 52.352 59.067 52.33 59.182 52.289 59.361 52.177 59.572 51.941 59.988 51.468 60.406 50.709 60.719 49.906 61.368 48.281 61.812 46.46 62.198 44.634L62.453 43.43 63.877 43.281C66.972 42.956 70.49 41.787 71.921 39.691 72.651 38.643 72.896 37.438 72.741 35.853 72.597 34.31 72.221 32.707 71.576 31.305 70.937 29.89 70.021 28.636 68.84 27.72 67.66 26.799 66.202 26.241 64.599 26.074 62.996 25.92 61.284 26.15 59.596 26.604 57.907 27.066 56.233 27.742 54.574 28.513 55.907 27.26 57.401 26.152 59.071 25.276 60.738 24.406 62.603 23.756 64.625 23.644 66.633 23.496 68.799 23.968 70.612 25.092 72.441 26.194 73.859 27.855 74.841 29.661 75.821 31.491 76.395 33.436 76.642 35.482 76.947 37.463 76.595 40.073 75.189 41.988 73.805 43.927 71.827 45.078 69.917 45.772 68.952 46.129 67.978 46.379 66.999 46.551 66.002 46.72 65.086 46.842 63.99 46.856L65.669 45.503C65.102 47.427 64.449 49.346 63.427 51.222 62.888 52.147 62.318 53.107 61.274 53.924 60.76 54.319 60.042 54.704 59.179 54.706A2.8 2.8 0 0 1 57.98 54.434 2.9 2.9 0 0 1 57.02 53.705L58.874 53.151C58.495 54.905 57.375 56.392 56.067 57.358 55.4 57.841 54.687 58.218 53.955 58.513 53.219 58.796 52.464 59.014 51.696 59.106" fill="#ffffff" data-fill-palette-color="accent"></path></g><g fill="#50a060" data-fill-palette-color="accent"><path d="M34.419 31.031C34.04 28.903 34.363 26.754 35.132 24.719 35.92 22.703 37.276 20.727 39.326 19.395A9.05 9.05 0 0 1 42.726 18.081 8.9 8.9 0 0 1 46.258 18.224 10.05 10.05 0 0 1 51.695 21.673C49.56 21.472 47.649 21.223 45.928 21.352 44.205 21.463 42.783 21.93 41.49 22.758 40.197 23.59 39.004 24.81 37.87 26.244 36.729 27.682 35.652 29.289 34.419 31.031" fill="#ffffff" data-fill-palette-color="accent"></path></g><path d="M92.05 78.104S98.89 73.425 98.169 66.585C98.169 66.585 91.69 71.625 90.61 66.946 90.61 66.946 83.412 75.224 80.891 72.704 80.891 72.704 85.209 78.464 78.371 81.703 78.372 81.703 81.611 79.544 92.05 78.104" fill="#ffffff" data-fill-palette-color="accent"></path><path d="M62.357 96.032S85.246 79.126 86.392 81.252C86.393 81.252 81.764 94.717 62.357 96.032" fill="#ffffff" data-fill-palette-color="accent"></path><path d="M17.502 23.472S17.862 19.154 26.5 20.953C26.5 20.953 57.095 12.314 58.895 9.434 58.895 9.434 57.095 4.755 52.416 8.355 52.416 8.355 49.537 11.235 39.458 13.754L21.461 18.433C21.461 18.434 18.942 18.793 17.502 23.472" fill="#ffffff" data-fill-palette-color="accent"></path><path d="M56.085 39.438C55.623 33.662 54.011 27.667 52.705 22.02 49.459 23.472 46.22 24.942 43.108 26.668 30.584 33.614 19.804 43.868 11.171 55.23 10.636 55.934 9.41 57.116 9.223 58.027 8.633 60.893 8.689 64.766 9.896 67.469 11.318 70.652 14.088 73.393 17.443 75.401 17.47 75.418 17.499 75.432 17.526 75.449 17.716 72.864 18.664 69.842 20.143 66.57 18.949 64.543 16.282 58.934 18.862 52.628 18.862 52.628 17.598 62.11 20.993 64.784 22.189 62.37 23.627 59.852 25.23 57.298 24.06 55.339 21.287 49.658 23.9 43.269 23.9 43.269 22.574 53.236 26.303 55.612A160 160 0 0 1 31.026 48.771C30.271 47.444 28.79 44.117 30.315 40.39 30.315 40.39 29.53 46.313 31.701 47.855A232 232 0 0 1 35.973 42.236C35.413 41.195 34.499 38.903 35.543 36.351 35.543 36.351 35.002 40.428 36.439 41.648 44.333 31.652 51.695 23.834 51.695 23.834L40.695 41.973C42.502 42.381 45.538 40.047 45.538 40.047 43.886 42.183 41.512 42.568 40.304 42.616L36.014 49.691C38.308 51.328 43.492 47.337 43.492 47.337 40.583 51.098 36.063 50.955 35.281 50.9L31.802 56.637C35.827 58.322 43.402 52.136 43.402 52.136 39.307 57.758 32.947 58.35 30.71 58.374 28.757 61.362 27.425 64.797 26.212 68.128 30.378 69.275 37.268 62.649 37.268 62.649 33.809 68.303 27.947 69.564 25.474 69.847 24.491 71.951 23.2 74.41 23.315 76.349 23.378 77.402 23.982 78.091 24.815 78.546 27.313 79.185 29.888 79.385 32.304 78.835 37.266 77.706 39.188 73.496 41.75 69.604 44.717 65.095 49.556 62.133 52.238 57.414 55.314 52.001 56.58 45.628 56.085 39.438" fill="#ffffff" data-fill-palette-color="accent"></path></svg></g></svg></g><g></g></svg></g><defs></defs></svg><rect width="395.52" height="276.1018624920707" fill="none" stroke="none" visibility="hidden"></rect></g></svg></g></svg>